<?xml version="1.0" encoding="utf-8" standalone="no"?>
<!DOCTYPE svg PUBLIC "-//W3C//DTD SVG 1.1//EN"
  "http://www.w3.org/Graphics/SVG/1.1/DTD/svg11.dtd">
<svg xmlns:xlink="http://www.w3.org/1999/xlink" width="921.921625pt" height="416.0375pt" viewBox="0 0 921.921625 416.0375" xmlns="http://www.w3.org/2000/svg" version="1.1">
 <metadata>
  <rdf:RDF xmlns:dc="http://purl.org/dc/elements/1.1/" xmlns:cc="http://creativecommons.org/ns#" xmlns:rdf="http://www.w3.org/1999/02/22-rdf-syntax-ns#">
   <cc:Work>
    <dc:type rdf:resource="http://purl.org/dc/dcmitype/StillImage"/>
    <dc:date>2023-06-19T14:24:36.510454</dc:date>
    <dc:format>image/svg+xml</dc:format>
    <dc:creator>
     <cc:Agent>
      <dc:title>Matplotlib v3.7.1, https://matplotlib.org/</dc:title>
     </cc:Agent>
    </dc:creator>
   </cc:Work>
  </rdf:RDF>
 </metadata>
 <defs>
  <style type="text/css">*{stroke-linejoin: round; stroke-linecap: butt}</style>
 </defs>
 <g id="figure_1">
  <g id="patch_1">
   <path d="M 0 416.0375 
L 921.921625 416.0375 
L 921.921625 -0 
L 0 -0 
z
" style="fill: #f3f3f3"/>
  </g>
  <g id="axes_1">
   <g id="patch_2">
    <path d="M 66.979063 333.36 
L 569.179063 333.36 
L 569.179063 7.2 
L 66.979063 7.2 
z
" style="fill: #f3f3f3"/>
   </g>
   <g id="patch_3">
    <path d="M 77.441563 333.36 
L 98.366563 333.36 
L 98.366563 269.703302 
L 77.441563 269.703302 
z
" clip-path="url(#p09cd476a56)" style="fill: #4e79a7"/>
   </g>
   <g id="patch_4">
    <path d="M 119.291563 333.36 
L 140.216563 333.36 
L 140.216563 269.882094 
L 119.291563 269.882094 
z
" clip-path="url(#p09cd476a56)" style="fill: #4e79a7"/>
   </g>
   <g id="patch_5">
    <path d="M 161.141563 333.36 
L 182.066563 333.36 
L 182.066563 277.970809 
L 161.141563 277.970809 
z
" clip-path="url(#p09cd476a56)" style="fill: #4e79a7"/>
   </g>
   <g id="patch_6">
    <path d="M 202.991563 333.36 
L 223.916563 333.36 
L 223.916563 268.998573 
L 202.991563 268.998573 
z
" clip-path="url(#p09cd476a56)" style="fill: #4e79a7"/>
   </g>
   <g id="patch_7">
    <path d="M 244.841563 333.36 
L 265.766563 333.36 
L 265.766563 285.971338 
L 244.841563 285.971338 
z
" clip-path="url(#p09cd476a56)" style="fill: #4e79a7"/>
   </g>
   <g id="patch_8">
    <path d="M 286.691563 333.36 
L 307.616563 333.36 
L 307.616563 272.094157 
L 286.691563 272.094157 
z
" clip-path="url(#p09cd476a56)" style="fill: #4e79a7"/>
   </g>
   <g id="patch_9">
    <path d="M 328.541563 333.36 
L 349.466563 333.36 
L 349.466563 272.795233 
L 328.541563 272.795233 
z
" clip-path="url(#p09cd476a56)" style="fill: #4e79a7"/>
   </g>
   <g id="patch_10">
    <path d="M 370.391563 333.36 
L 391.316563 333.36 
L 391.316563 266.77925 
L 370.391563 266.77925 
z
" clip-path="url(#p09cd476a56)" style="fill: #4e79a7"/>
   </g>
   <g id="patch_11">
    <path d="M 412.241563 333.36 
L 433.166563 333.36 
L 433.166563 286.444715 
L 412.241563 286.444715 
z
" clip-path="url(#p09cd476a56)" style="fill: #4e79a7"/>
   </g>
   <g id="patch_12">
    <path d="M 454.091563 333.36 
L 475.016563 333.36 
L 475.016563 292.860325 
L 454.091563 292.860325 
z
" clip-path="url(#p09cd476a56)" style="fill: #4e79a7"/>
   </g>
   <g id="patch_13">
    <path d="M 495.941563 333.36 
L 516.866563 333.36 
L 516.866563 297.133517 
L 495.941563 297.133517 
z
" clip-path="url(#p09cd476a56)" style="fill: #4e79a7"/>
   </g>
   <g id="patch_14">
    <path d="M 537.791563 333.36 
L 558.716563 333.36 
L 558.716563 304.267898 
L 537.791563 304.267898 
z
" clip-path="url(#p09cd476a56)" style="fill: #4e79a7"/>
   </g>
   <g id="patch_15">
    <path d="M 77.441563 269.703302 
L 98.366563 269.703302 
L 98.366563 207.255275 
L 77.441563 207.255275 
z
" clip-path="url(#p09cd476a56)" style="fill: #f28e2c"/>
   </g>
   <g id="patch_16">
    <path d="M 119.291563 269.882094 
L 140.216563 269.882094 
L 140.216563 216.921237 
L 119.291563 216.921237 
z
" clip-path="url(#p09cd476a56)" style="fill: #f28e2c"/>
   </g>
   <g id="patch_17">
    <path d="M 161.141563 277.970809 
L 182.066563 277.970809 
L 182.066563 234.183408 
L 161.141563 234.183408 
z
" clip-path="url(#p09cd476a56)" style="fill: #f28e2c"/>
   </g>
   <g id="patch_18">
    <path d="M 202.991563 268.998573 
L 223.916563 268.998573 
L 223.916563 244.270235 
L 202.991563 244.270235 
z
" clip-path="url(#p09cd476a56)" style="fill: #f28e2c"/>
   </g>
   <g id="patch_19">
    <path d="M 244.841563 285.971338 
L 265.766563 285.971338 
L 265.766563 252.552744 
L 244.841563 252.552744 
z
" clip-path="url(#p09cd476a56)" style="fill: #f28e2c"/>
   </g>
   <g id="patch_20">
    <path d="M 286.691563 272.094157 
L 307.616563 272.094157 
L 307.616563 233.131231 
L 286.691563 233.131231 
z
" clip-path="url(#p09cd476a56)" style="fill: #f28e2c"/>
   </g>
   <g id="patch_21">
    <path d="M 328.541563 272.795233 
L 349.466563 272.795233 
L 349.466563 226.591184 
L 328.541563 226.591184 
z
" clip-path="url(#p09cd476a56)" style="fill: #f28e2c"/>
   </g>
   <g id="patch_22">
    <path d="M 370.391563 266.77925 
L 391.316563 266.77925 
L 391.316563 232.754529 
L 370.391563 232.754529 
z
" clip-path="url(#p09cd476a56)" style="fill: #f28e2c"/>
   </g>
   <g id="patch_23">
    <path d="M 412.241563 286.444715 
L 433.166563 286.444715 
L 433.166563 262.08169 
L 412.241563 262.08169 
z
" clip-path="url(#p09cd476a56)" style="fill: #f28e2c"/>
   </g>
   <g id="patch_24">
    <path d="M 454.091563 292.860325 
L 475.016563 292.860325 
L 475.016563 273.39689 
L 454.091563 273.39689 
z
" clip-path="url(#p09cd476a56)" style="fill: #f28e2c"/>
   </g>
   <g id="patch_25">
    <path d="M 495.941563 297.133517 
L 516.866563 297.133517 
L 516.866563 266.584319 
L 495.941563 266.584319 
z
" clip-path="url(#p09cd476a56)" style="fill: #f28e2c"/>
   </g>
   <g id="patch_26">
    <path d="M 537.791563 304.267898 
L 558.716563 304.267898 
L 558.716563 280.243453 
L 537.791563 280.243453 
z
" clip-path="url(#p09cd476a56)" style="fill: #f28e2c"/>
   </g>
   <g id="patch_27">
    <path d="M 77.441563 207.255275 
L 98.366563 207.255275 
L 98.366563 162.53443 
L 77.441563 162.53443 
z
" clip-path="url(#p09cd476a56)" style="fill: #e15759"/>
   </g>
   <g id="patch_28">
    <path d="M 119.291563 216.921237 
L 140.216563 216.921237 
L 140.216563 161.706727 
L 119.291563 161.706727 
z
" clip-path="url(#p09cd476a56)" style="fill: #e15759"/>
   </g>
   <g id="patch_29">
    <path d="M 161.141563 234.183408 
L 182.066563 234.183408 
L 182.066563 169.063683 
L 161.141563 169.063683 
z
" clip-path="url(#p09cd476a56)" style="fill: #e15759"/>
   </g>
   <g id="patch_30">
    <path d="M 202.991563 244.270235 
L 223.916563 244.270235 
L 223.916563 187.361184 
L 202.991563 187.361184 
z
" clip-path="url(#p09cd476a56)" style="fill: #e15759"/>
   </g>
   <g id="patch_31">
    <path d="M 244.841563 252.552744 
L 265.766563 252.552744 
L 265.766563 169.280181 
L 244.841563 169.280181 
z
" clip-path="url(#p09cd476a56)" style="fill: #e15759"/>
   </g>
   <g id="patch_32">
    <path d="M 286.691563 233.131231 
L 307.616563 233.131231 
L 307.616563 174.821196 
L 286.691563 174.821196 
z
" clip-path="url(#p09cd476a56)" style="fill: #e15759"/>
   </g>
   <g id="patch_33">
    <path d="M 328.541563 226.591184 
L 349.466563 226.591184 
L 349.466563 171.02145 
L 328.541563 171.02145 
z
" clip-path="url(#p09cd476a56)" style="fill: #e15759"/>
   </g>
   <g id="patch_34">
    <path d="M 370.391563 232.754529 
L 391.316563 232.754529 
L 391.316563 180.371145 
L 370.391563 180.371145 
z
" clip-path="url(#p09cd476a56)" style="fill: #e15759"/>
   </g>
   <g id="patch_35">
    <path d="M 412.241563 262.08169 
L 433.166563 262.08169 
L 433.166563 200.680282 
L 412.241563 200.680282 
z
" clip-path="url(#p09cd476a56)" style="fill: #e15759"/>
   </g>
   <g id="patch_36">
    <path d="M 454.091563 273.39689 
L 475.016563 273.39689 
L 475.016563 218.152188 
L 454.091563 218.152188 
z
" clip-path="url(#p09cd476a56)" style="fill: #e15759"/>
   </g>
   <g id="patch_37">
    <path d="M 495.941563 266.584319 
L 516.866563 266.584319 
L 516.866563 207.648698 
L 495.941563 207.648698 
z
" clip-path="url(#p09cd476a56)" style="fill: #e15759"/>
   </g>
   <g id="patch_38">
    <path d="M 537.791563 280.243453 
L 558.716563 280.243453 
L 558.716563 214.926992 
L 537.791563 214.926992 
z
" clip-path="url(#p09cd476a56)" style="fill: #e15759"/>
   </g>
   <g id="patch_39">
    <path d="M 77.441563 162.53443 
L 98.366563 162.53443 
L 98.366563 127.482957 
L 77.441563 127.482957 
z
" clip-path="url(#p09cd476a56)" style="fill: #76b7b2"/>
   </g>
   <g id="patch_40">
    <path d="M 119.291563 161.706727 
L 140.216563 161.706727 
L 140.216563 126.775098 
L 119.291563 126.775098 
z
" clip-path="url(#p09cd476a56)" style="fill: #76b7b2"/>
   </g>
   <g id="patch_41">
    <path d="M 161.141563 169.063683 
L 182.066563 169.063683 
L 182.066563 137.626575 
L 161.141563 137.626575 
z
" clip-path="url(#p09cd476a56)" style="fill: #76b7b2"/>
   </g>
   <g id="patch_42">
    <path d="M 202.991563 187.361184 
L 223.916563 187.361184 
L 223.916563 156.196704 
L 202.991563 156.196704 
z
" clip-path="url(#p09cd476a56)" style="fill: #76b7b2"/>
   </g>
   <g id="patch_43">
    <path d="M 244.841563 169.280181 
L 265.766563 169.280181 
L 265.766563 140.518277 
L 244.841563 140.518277 
z
" clip-path="url(#p09cd476a56)" style="fill: #76b7b2"/>
   </g>
   <g id="patch_44">
    <path d="M 286.691563 174.821196 
L 307.616563 174.821196 
L 307.616563 147.412793 
L 286.691563 147.412793 
z
" clip-path="url(#p09cd476a56)" style="fill: #76b7b2"/>
   </g>
   <g id="patch_45">
    <path d="M 328.541563 171.02145 
L 349.466563 171.02145 
L 349.466563 138.86593 
L 328.541563 138.86593 
z
" clip-path="url(#p09cd476a56)" style="fill: #76b7b2"/>
   </g>
   <g id="patch_46">
    <path d="M 370.391563 180.371145 
L 391.316563 180.371145 
L 391.316563 150.50772 
L 370.391563 150.50772 
z
" clip-path="url(#p09cd476a56)" style="fill: #76b7b2"/>
   </g>
   <g id="patch_47">
    <path d="M 412.241563 200.680282 
L 433.166563 200.680282 
L 433.166563 170.720345 
L 412.241563 170.720345 
z
" clip-path="url(#p09cd476a56)" style="fill: #76b7b2"/>
   </g>
   <g id="patch_48">
    <path d="M 454.091563 218.152188 
L 475.016563 218.152188 
L 475.016563 192.594141 
L 454.091563 192.594141 
z
" clip-path="url(#p09cd476a56)" style="fill: #76b7b2"/>
   </g>
   <g id="patch_49">
    <path d="M 495.941563 207.648698 
L 516.866563 207.648698 
L 516.866563 179.802969 
L 495.941563 179.802969 
z
" clip-path="url(#p09cd476a56)" style="fill: #76b7b2"/>
   </g>
   <g id="patch_50">
    <path d="M 537.791563 214.926992 
L 558.716563 214.926992 
L 558.716563 193.342529 
L 537.791563 193.342529 
z
" clip-path="url(#p09cd476a56)" style="fill: #76b7b2"/>
   </g>
   <g id="patch_51">
    <path d="M 77.441563 127.482957 
L 98.366563 127.482957 
L 98.366563 96.057499 
L 77.441563 96.057499 
z
" clip-path="url(#p09cd476a56)" style="fill: #59a14f"/>
   </g>
   <g id="patch_52">
    <path d="M 119.291563 126.775098 
L 140.216563 126.775098 
L 140.216563 106.492216 
L 119.291563 106.492216 
z
" clip-path="url(#p09cd476a56)" style="fill: #59a14f"/>
   </g>
   <g id="patch_53">
    <path d="M 161.141563 137.626575 
L 182.066563 137.626575 
L 182.066563 100.575697 
L 161.141563 100.575697 
z
" clip-path="url(#p09cd476a56)" style="fill: #59a14f"/>
   </g>
   <g id="patch_54">
    <path d="M 202.991563 156.196704 
L 223.916563 156.196704 
L 223.916563 99.287652 
L 202.991563 99.287652 
z
" clip-path="url(#p09cd476a56)" style="fill: #59a14f"/>
   </g>
   <g id="patch_55">
    <path d="M 244.841563 140.518277 
L 265.766563 140.518277 
L 265.766563 98.881995 
L 244.841563 98.881995 
z
" clip-path="url(#p09cd476a56)" style="fill: #59a14f"/>
   </g>
   <g id="patch_56">
    <path d="M 286.691563 147.412793 
L 307.616563 147.412793 
L 307.616563 99.582442 
L 286.691563 99.582442 
z
" clip-path="url(#p09cd476a56)" style="fill: #59a14f"/>
   </g>
   <g id="patch_57">
    <path d="M 328.541563 138.86593 
L 349.466563 138.86593 
L 349.466563 101.715377 
L 328.541563 101.715377 
z
" clip-path="url(#p09cd476a56)" style="fill: #59a14f"/>
   </g>
   <g id="patch_58">
    <path d="M 370.391563 150.50772 
L 391.316563 150.50772 
L 391.316563 109.139534 
L 370.391563 109.139534 
z
" clip-path="url(#p09cd476a56)" style="fill: #59a14f"/>
   </g>
   <g id="patch_59">
    <path d="M 412.241563 170.720345 
L 433.166563 170.720345 
L 433.166563 137.797338 
L 412.241563 137.797338 
z
" clip-path="url(#p09cd476a56)" style="fill: #59a14f"/>
   </g>
   <g id="patch_60">
    <path d="M 454.091563 192.594141 
L 475.016563 192.594141 
L 475.016563 128.109222 
L 454.091563 128.109222 
z
" clip-path="url(#p09cd476a56)" style="fill: #59a14f"/>
   </g>
   <g id="patch_61">
    <path d="M 495.941563 179.802969 
L 516.866563 179.802969 
L 516.866563 149.524118 
L 495.941563 149.524118 
z
" clip-path="url(#p09cd476a56)" style="fill: #59a14f"/>
   </g>
   <g id="patch_62">
    <path d="M 537.791563 193.342529 
L 558.716563 193.342529 
L 558.716563 169.693466 
L 537.791563 169.693466 
z
" clip-path="url(#p09cd476a56)" style="fill: #59a14f"/>
   </g>
   <g id="patch_63">
    <path d="M 77.441563 96.057499 
L 98.366563 96.057499 
L 98.366563 72.286959 
L 77.441563 72.286959 
z
" clip-path="url(#p09cd476a56)" style="fill: #edc949"/>
   </g>
   <g id="patch_64">
    <path d="M 119.291563 106.492216 
L 140.216563 106.492216 
L 140.216563 75.692285 
L 119.291563 75.692285 
z
" clip-path="url(#p09cd476a56)" style="fill: #edc949"/>
   </g>
   <g id="patch_65">
    <path d="M 161.141563 100.575697 
L 182.066563 100.575697 
L 182.066563 72.132599 
L 161.141563 72.132599 
z
" clip-path="url(#p09cd476a56)" style="fill: #edc949"/>
   </g>
   <g id="patch_66">
    <path d="M 202.991563 99.287652 
L 223.916563 99.287652 
L 223.916563 74.559315 
L 202.991563 74.559315 
z
" clip-path="url(#p09cd476a56)" style="fill: #edc949"/>
   </g>
   <g id="patch_67">
    <path d="M 244.841563 98.881995 
L 265.766563 98.881995 
L 265.766563 78.885624 
L 244.841563 78.885624 
z
" clip-path="url(#p09cd476a56)" style="fill: #edc949"/>
   </g>
   <g id="patch_68">
    <path d="M 286.691563 99.582442 
L 307.616563 99.582442 
L 307.616563 71.905329 
L 286.691563 71.905329 
z
" clip-path="url(#p09cd476a56)" style="fill: #edc949"/>
   </g>
   <g id="patch_69">
    <path d="M 328.541563 101.715377 
L 349.466563 101.715377 
L 349.466563 79.237732 
L 328.541563 79.237732 
z
" clip-path="url(#p09cd476a56)" style="fill: #edc949"/>
   </g>
   <g id="patch_70">
    <path d="M 370.391563 109.139534 
L 391.316563 109.139534 
L 391.316563 89.55696 
L 370.391563 89.55696 
z
" clip-path="url(#p09cd476a56)" style="fill: #edc949"/>
   </g>
   <g id="patch_71">
    <path d="M 412.241563 137.797338 
L 433.166563 137.797338 
L 433.166563 117.055844 
L 412.241563 117.055844 
z
" clip-path="url(#p09cd476a56)" style="fill: #edc949"/>
   </g>
   <g id="patch_72">
    <path d="M 454.091563 128.109222 
L 475.016563 128.109222 
L 475.016563 109.432188 
L 454.091563 109.432188 
z
" clip-path="url(#p09cd476a56)" style="fill: #edc949"/>
   </g>
   <g id="patch_73">
    <path d="M 495.941563 149.524118 
L 516.866563 149.524118 
L 516.866563 126.544633 
L 495.941563 126.544633 
z
" clip-path="url(#p09cd476a56)" style="fill: #edc949"/>
   </g>
   <g id="patch_74">
    <path d="M 537.791563 169.693466 
L 558.716563 169.693466 
L 558.716563 156.930479 
L 537.791563 156.930479 
z
" clip-path="url(#p09cd476a56)" style="fill: #edc949"/>
   </g>
   <g id="patch_75">
    <path d="M 77.441563 72.286959 
L 98.366563 72.286959 
L 98.366563 50.530873 
L 77.441563 50.530873 
z
" clip-path="url(#p09cd476a56)" style="fill: #af7aa1"/>
   </g>
   <g id="patch_76">
    <path d="M 119.291563 75.692285 
L 140.216563 75.692285 
L 140.216563 59.916711 
L 119.291563 59.916711 
z
" clip-path="url(#p09cd476a56)" style="fill: #af7aa1"/>
   </g>
   <g id="patch_77">
    <path d="M 161.141563 72.132599 
L 182.066563 72.132599 
L 182.066563 53.794286 
L 161.141563 53.794286 
z
" clip-path="url(#p09cd476a56)" style="fill: #af7aa1"/>
   </g>
   <g id="patch_78">
    <path d="M 202.991563 74.559315 
L 223.916563 74.559315 
L 223.916563 48.814744 
L 202.991563 48.814744 
z
" clip-path="url(#p09cd476a56)" style="fill: #af7aa1"/>
   </g>
   <g id="patch_79">
    <path d="M 244.841563 78.885624 
L 265.766563 78.885624 
L 265.766563 58.067483 
L 244.841563 58.067483 
z
" clip-path="url(#p09cd476a56)" style="fill: #af7aa1"/>
   </g>
   <g id="patch_80">
    <path d="M 286.691563 71.905329 
L 307.616563 71.905329 
L 307.616563 48.527573 
L 286.691563 48.527573 
z
" clip-path="url(#p09cd476a56)" style="fill: #af7aa1"/>
   </g>
   <g id="patch_81">
    <path d="M 328.541563 79.237732 
L 349.466563 79.237732 
L 349.466563 56.760086 
L 328.541563 56.760086 
z
" clip-path="url(#p09cd476a56)" style="fill: #af7aa1"/>
   </g>
   <g id="patch_82">
    <path d="M 370.391563 89.55696 
L 391.316563 89.55696 
L 391.316563 69.729605 
L 370.391563 69.729605 
z
" clip-path="url(#p09cd476a56)" style="fill: #af7aa1"/>
   </g>
   <g id="patch_83">
    <path d="M 412.241563 117.055844 
L 433.166563 117.055844 
L 433.166563 104.874331 
L 412.241563 104.874331 
z
" clip-path="url(#p09cd476a56)" style="fill: #af7aa1"/>
   </g>
   <g id="patch_84">
    <path d="M 454.091563 109.432188 
L 475.016563 109.432188 
L 475.016563 90.558553 
L 454.091563 90.558553 
z
" clip-path="url(#p09cd476a56)" style="fill: #af7aa1"/>
   </g>
   <g id="patch_85">
    <path d="M 495.941563 126.544633 
L 516.866563 126.544633 
L 516.866563 107.350004 
L 495.941563 107.350004 
z
" clip-path="url(#p09cd476a56)" style="fill: #af7aa1"/>
   </g>
   <g id="patch_86">
    <path d="M 537.791563 156.930479 
L 558.716563 156.930479 
L 558.716563 140.976746 
L 537.791563 140.976746 
z
" clip-path="url(#p09cd476a56)" style="fill: #af7aa1"/>
   </g>
   <g id="patch_87">
    <path d="M 77.441563 50.530873 
L 98.366563 50.530873 
L 98.366563 36.026815 
L 77.441563 36.026815 
z
" clip-path="url(#p09cd476a56)" style="fill: #ff9da7"/>
   </g>
   <g id="patch_88">
    <path d="M 119.291563 59.916711 
L 140.216563 59.916711 
L 140.216563 35.126523 
L 119.291563 35.126523 
z
" clip-path="url(#p09cd476a56)" style="fill: #ff9da7"/>
   </g>
   <g id="patch_89">
    <path d="M 161.141563 53.794286 
L 182.066563 53.794286 
L 182.066563 27.970947 
L 161.141563 27.970947 
z
" clip-path="url(#p09cd476a56)" style="fill: #ff9da7"/>
   </g>
   <g id="patch_90">
    <path d="M 202.991563 48.814744 
L 223.916563 48.814744 
L 223.916563 31.877526 
L 202.991563 31.877526 
z
" clip-path="url(#p09cd476a56)" style="fill: #ff9da7"/>
   </g>
   <g id="patch_91">
    <path d="M 244.841563 58.067483 
L 265.766563 58.067483 
L 265.766563 35.605805 
L 244.841563 35.605805 
z
" clip-path="url(#p09cd476a56)" style="fill: #ff9da7"/>
   </g>
   <g id="patch_92">
    <path d="M 286.691563 48.527573 
L 307.616563 48.527573 
L 307.616563 32.136273 
L 286.691563 32.136273 
z
" clip-path="url(#p09cd476a56)" style="fill: #ff9da7"/>
   </g>
   <g id="patch_93">
    <path d="M 328.541563 56.760086 
L 349.466563 56.760086 
L 349.466563 37.092146 
L 328.541563 37.092146 
z
" clip-path="url(#p09cd476a56)" style="fill: #ff9da7"/>
   </g>
   <g id="patch_94">
    <path d="M 370.391563 69.729605 
L 391.316563 69.729605 
L 391.316563 52.105289 
L 370.391563 52.105289 
z
" clip-path="url(#p09cd476a56)" style="fill: #ff9da7"/>
   </g>
   <g id="patch_95">
    <path d="M 412.241563 104.874331 
L 433.166563 104.874331 
L 433.166563 83.309762 
L 412.241563 83.309762 
z
" clip-path="url(#p09cd476a56)" style="fill: #ff9da7"/>
   </g>
   <g id="patch_96">
    <path d="M 454.091563 90.558553 
L 475.016563 90.558553 
L 475.016563 76.403327 
L 454.091563 76.403327 
z
" clip-path="url(#p09cd476a56)" style="fill: #ff9da7"/>
   </g>
   <g id="patch_97">
    <path d="M 495.941563 107.350004 
L 516.866563 107.350004 
L 516.866563 95.454741 
L 495.941563 95.454741 
z
" clip-path="url(#p09cd476a56)" style="fill: #ff9da7"/>
   </g>
   <g id="patch_98">
    <path d="M 537.791563 140.976746 
L 558.716563 140.976746 
L 558.716563 125.023013 
L 537.791563 125.023013 
z
" clip-path="url(#p09cd476a56)" style="fill: #ff9da7"/>
   </g>
   <g id="patch_99">
    <path d="M 77.441563 36.026815 
L 98.366563 36.026815 
L 98.366563 26.357443 
L 77.441563 26.357443 
z
" clip-path="url(#p09cd476a56)" style="fill: #9c755f"/>
   </g>
   <g id="patch_100">
    <path d="M 119.291563 35.126523 
L 140.216563 35.126523 
L 140.216563 25.7363 
L 119.291563 25.7363 
z
" clip-path="url(#p09cd476a56)" style="fill: #9c755f"/>
   </g>
   <g id="patch_101">
    <path d="M 161.141563 27.970947 
L 182.066563 27.970947 
L 182.066563 24.228434 
L 161.141563 24.228434 
z
" clip-path="url(#p09cd476a56)" style="fill: #9c755f"/>
   </g>
   <g id="patch_102">
    <path d="M 202.991563 31.877526 
L 223.916563 31.877526 
L 223.916563 27.135105 
L 202.991563 27.135105 
z
" clip-path="url(#p09cd476a56)" style="fill: #9c755f"/>
   </g>
   <g id="patch_103">
    <path d="M 244.841563 35.605805 
L 265.766563 35.605805 
L 265.766563 25.74458 
L 244.841563 25.74458 
z
" clip-path="url(#p09cd476a56)" style="fill: #9c755f"/>
   </g>
   <g id="patch_104">
    <path d="M 286.691563 32.136273 
L 307.616563 32.136273 
L 307.616563 25.149817 
L 286.691563 25.149817 
z
" clip-path="url(#p09cd476a56)" style="fill: #9c755f"/>
   </g>
   <g id="patch_105">
    <path d="M 328.541563 37.092146 
L 349.466563 37.092146 
L 349.466563 29.287408 
L 328.541563 29.287408 
z
" clip-path="url(#p09cd476a56)" style="fill: #9c755f"/>
   </g>
   <g id="patch_106">
    <path d="M 370.391563 52.105289 
L 391.316563 52.105289 
L 391.316563 31.054022 
L 370.391563 31.054022 
z
" clip-path="url(#p09cd476a56)" style="fill: #9c755f"/>
   </g>
   <g id="patch_107">
    <path d="M 412.241563 83.309762 
L 433.166563 83.309762 
L 433.166563 77.219005 
L 412.241563 77.219005 
z
" clip-path="url(#p09cd476a56)" style="fill: #9c755f"/>
   </g>
   <g id="patch_108">
    <path d="M 454.091563 76.403327 
L 475.016563 76.403327 
L 475.016563 66.76991 
L 454.091563 66.76991 
z
" clip-path="url(#p09cd476a56)" style="fill: #9c755f"/>
   </g>
   <g id="patch_109">
    <path d="M 495.941563 95.454741 
L 516.866563 95.454741 
L 516.866563 42.737098 
L 495.941563 42.737098 
z
" clip-path="url(#p09cd476a56)" style="fill: #9c755f"/>
   </g>
   <g id="patch_110">
    <path d="M 537.791563 125.023013 
L 558.716563 125.023013 
L 558.716563 79.038722 
L 537.791563 79.038722 
z
" clip-path="url(#p09cd476a56)" style="fill: #9c755f"/>
   </g>
   <g id="patch_111">
    <path d="M 77.441563 26.357443 
L 98.366563 26.357443 
L 98.366563 22.731429 
L 77.441563 22.731429 
z
" clip-path="url(#p09cd476a56)" style="fill: #bab0ab"/>
   </g>
   <g id="patch_112">
    <path d="M 119.291563 25.7363 
L 140.216563 25.7363 
L 140.216563 22.731429 
L 119.291563 22.731429 
z
" clip-path="url(#p09cd476a56)" style="fill: #bab0ab"/>
   </g>
   <g id="patch_113">
    <path d="M 161.141563 24.228434 
L 182.066563 24.228434 
L 182.066563 22.731429 
L 161.141563 22.731429 
z
" clip-path="url(#p09cd476a56)" style="fill: #bab0ab"/>
   </g>
   <g id="patch_114">
    <path d="M 202.991563 27.135105 
L 223.916563 27.135105 
L 223.916563 22.731429 
L 202.991563 22.731429 
z
" clip-path="url(#p09cd476a56)" style="fill: #bab0ab"/>
   </g>
   <g id="patch_115">
    <path d="M 244.841563 25.74458 
L 265.766563 25.74458 
L 265.766563 22.731429 
L 244.841563 22.731429 
z
" clip-path="url(#p09cd476a56)" style="fill: #bab0ab"/>
   </g>
   <g id="patch_116">
    <path d="M 286.691563 25.149817 
L 307.616563 25.149817 
L 307.616563 22.731429 
L 286.691563 22.731429 
z
" clip-path="url(#p09cd476a56)" style="fill: #bab0ab"/>
   </g>
   <g id="patch_117">
    <path d="M 328.541563 29.287408 
L 349.466563 29.287408 
L 349.466563 22.731429 
L 328.541563 22.731429 
z
" clip-path="url(#p09cd476a56)" style="fill: #bab0ab"/>
   </g>
   <g id="patch_118">
    <path d="M 370.391563 31.054022 
L 391.316563 31.054022 
L 391.316563 22.731429 
L 370.391563 22.731429 
z
" clip-path="url(#p09cd476a56)" style="fill: #bab0ab"/>
   </g>
   <g id="patch_119">
    <path d="M 412.241563 77.219005 
L 433.166563 77.219005 
L 433.166563 22.731429 
L 412.241563 22.731429 
z
" clip-path="url(#p09cd476a56)" style="fill: #bab0ab"/>
   </g>
   <g id="patch_120">
    <path d="M 454.091563 66.76991 
L 475.016563 66.76991 
L 475.016563 22.731429 
L 454.091563 22.731429 
z
" clip-path="url(#p09cd476a56)" style="fill: #bab0ab"/>
   </g>
   <g id="patch_121">
    <path d="M 495.941563 42.737098 
L 516.866563 42.737098 
L 516.866563 22.731429 
L 495.941563 22.731429 
z
" clip-path="url(#p09cd476a56)" style="fill: #bab0ab"/>
   </g>
   <g id="patch_122">
    <path d="M 537.791563 79.038722 
L 558.716563 79.038722 
L 558.716563 22.731429 
L 537.791563 22.731429 
z
" clip-path="url(#p09cd476a56)" style="fill: #bab0ab"/>
   </g>
   <g id="matplotlib.axis_1">
    <g id="xtick_1">
     <g id="line2d_1">
      <defs>
       <path id="mf3c6cce443" d="M 0 0 
L 0 3.5 
" style="stroke: #000000; stroke-width: 0.8"/>
      </defs>
      <g>
       <use xlink:href="#mf3c6cce443" x="87.904063" y="333.36" style="stroke: #000000; stroke-width: 0.8"/>
      </g>
     </g>
     <g id="text_1">
      <!-- January -->
      <g transform="translate(91.44125 390.162813) rotate(-90) scale(0.14 -0.14)">
       <defs>
        <path id="ArialMT-4a" d="M 184 1300 
L 731 1375 
Q 753 850 928 656 
Q 1103 463 1413 463 
Q 1641 463 1806 567 
Q 1972 672 2034 851 
Q 2097 1031 2097 1425 
L 2097 4581 
L 2703 4581 
L 2703 1459 
Q 2703 884 2564 568 
Q 2425 253 2123 87 
Q 1822 -78 1416 -78 
Q 813 -78 492 269 
Q 172 616 184 1300 
z
" transform="scale(0.015625)"/>
        <path id="ArialMT-61" d="M 2588 409 
Q 2275 144 1986 34 
Q 1697 -75 1366 -75 
Q 819 -75 525 192 
Q 231 459 231 875 
Q 231 1119 342 1320 
Q 453 1522 633 1644 
Q 813 1766 1038 1828 
Q 1203 1872 1538 1913 
Q 2219 1994 2541 2106 
Q 2544 2222 2544 2253 
Q 2544 2597 2384 2738 
Q 2169 2928 1744 2928 
Q 1347 2928 1158 2789 
Q 969 2650 878 2297 
L 328 2372 
Q 403 2725 575 2942 
Q 747 3159 1072 3276 
Q 1397 3394 1825 3394 
Q 2250 3394 2515 3294 
Q 2781 3194 2906 3042 
Q 3031 2891 3081 2659 
Q 3109 2516 3109 2141 
L 3109 1391 
Q 3109 606 3145 398 
Q 3181 191 3288 0 
L 2700 0 
Q 2613 175 2588 409 
z
M 2541 1666 
Q 2234 1541 1622 1453 
Q 1275 1403 1131 1340 
Q 988 1278 909 1158 
Q 831 1038 831 891 
Q 831 666 1001 516 
Q 1172 366 1500 366 
Q 1825 366 2078 508 
Q 2331 650 2450 897 
Q 2541 1088 2541 1459 
L 2541 1666 
z
" transform="scale(0.015625)"/>
        <path id="ArialMT-6e" d="M 422 0 
L 422 3319 
L 928 3319 
L 928 2847 
Q 1294 3394 1984 3394 
Q 2284 3394 2536 3286 
Q 2788 3178 2913 3003 
Q 3038 2828 3088 2588 
Q 3119 2431 3119 2041 
L 3119 0 
L 2556 0 
L 2556 2019 
Q 2556 2363 2490 2533 
Q 2425 2703 2258 2804 
Q 2091 2906 1866 2906 
Q 1506 2906 1245 2678 
Q 984 2450 984 1813 
L 984 0 
L 422 0 
z
" transform="scale(0.015625)"/>
        <path id="ArialMT-75" d="M 2597 0 
L 2597 488 
Q 2209 -75 1544 -75 
Q 1250 -75 995 37 
Q 741 150 617 320 
Q 494 491 444 738 
Q 409 903 409 1263 
L 409 3319 
L 972 3319 
L 972 1478 
Q 972 1038 1006 884 
Q 1059 663 1231 536 
Q 1403 409 1656 409 
Q 1909 409 2131 539 
Q 2353 669 2445 892 
Q 2538 1116 2538 1541 
L 2538 3319 
L 3100 3319 
L 3100 0 
L 2597 0 
z
" transform="scale(0.015625)"/>
        <path id="ArialMT-72" d="M 416 0 
L 416 3319 
L 922 3319 
L 922 2816 
Q 1116 3169 1280 3281 
Q 1444 3394 1641 3394 
Q 1925 3394 2219 3213 
L 2025 2691 
Q 1819 2813 1613 2813 
Q 1428 2813 1281 2702 
Q 1134 2591 1072 2394 
Q 978 2094 978 1738 
L 978 0 
L 416 0 
z
" transform="scale(0.015625)"/>
        <path id="ArialMT-79" d="M 397 -1278 
L 334 -750 
Q 519 -800 656 -800 
Q 844 -800 956 -737 
Q 1069 -675 1141 -563 
Q 1194 -478 1313 -144 
Q 1328 -97 1363 -6 
L 103 3319 
L 709 3319 
L 1400 1397 
Q 1534 1031 1641 628 
Q 1738 1016 1872 1384 
L 2581 3319 
L 3144 3319 
L 1881 -56 
Q 1678 -603 1566 -809 
Q 1416 -1088 1222 -1217 
Q 1028 -1347 759 -1347 
Q 597 -1347 397 -1278 
z
" transform="scale(0.015625)"/>
       </defs>
       <use xlink:href="#ArialMT-4a"/>
       <use xlink:href="#ArialMT-61" x="50"/>
       <use xlink:href="#ArialMT-6e" x="105.615234"/>
       <use xlink:href="#ArialMT-75" x="161.230469"/>
       <use xlink:href="#ArialMT-61" x="216.845703"/>
       <use xlink:href="#ArialMT-72" x="272.460938"/>
       <use xlink:href="#ArialMT-79" x="305.761719"/>
      </g>
     </g>
    </g>
    <g id="xtick_2">
     <g id="line2d_2">
      <g>
       <use xlink:href="#mf3c6cce443" x="129.754063" y="333.36" style="stroke: #000000; stroke-width: 0.8"/>
      </g>
     </g>
     <g id="text_2">
      <!-- February -->
      <g transform="translate(133.29125 396.375313) rotate(-90) scale(0.14 -0.14)">
       <defs>
        <path id="ArialMT-46" d="M 525 0 
L 525 4581 
L 3616 4581 
L 3616 4041 
L 1131 4041 
L 1131 2622 
L 3281 2622 
L 3281 2081 
L 1131 2081 
L 1131 0 
L 525 0 
z
" transform="scale(0.015625)"/>
        <path id="ArialMT-65" d="M 2694 1069 
L 3275 997 
Q 3138 488 2766 206 
Q 2394 -75 1816 -75 
Q 1088 -75 661 373 
Q 234 822 234 1631 
Q 234 2469 665 2931 
Q 1097 3394 1784 3394 
Q 2450 3394 2872 2941 
Q 3294 2488 3294 1666 
Q 3294 1616 3291 1516 
L 816 1516 
Q 847 969 1125 678 
Q 1403 388 1819 388 
Q 2128 388 2347 550 
Q 2566 713 2694 1069 
z
M 847 1978 
L 2700 1978 
Q 2663 2397 2488 2606 
Q 2219 2931 1791 2931 
Q 1403 2931 1139 2672 
Q 875 2413 847 1978 
z
" transform="scale(0.015625)"/>
        <path id="ArialMT-62" d="M 941 0 
L 419 0 
L 419 4581 
L 981 4581 
L 981 2947 
Q 1338 3394 1891 3394 
Q 2197 3394 2470 3270 
Q 2744 3147 2920 2923 
Q 3097 2700 3197 2384 
Q 3297 2069 3297 1709 
Q 3297 856 2875 390 
Q 2453 -75 1863 -75 
Q 1275 -75 941 416 
L 941 0 
z
M 934 1684 
Q 934 1088 1097 822 
Q 1363 388 1816 388 
Q 2184 388 2453 708 
Q 2722 1028 2722 1663 
Q 2722 2313 2464 2622 
Q 2206 2931 1841 2931 
Q 1472 2931 1203 2611 
Q 934 2291 934 1684 
z
" transform="scale(0.015625)"/>
       </defs>
       <use xlink:href="#ArialMT-46"/>
       <use xlink:href="#ArialMT-65" x="61.083984"/>
       <use xlink:href="#ArialMT-62" x="116.699219"/>
       <use xlink:href="#ArialMT-72" x="172.314453"/>
       <use xlink:href="#ArialMT-75" x="205.615234"/>
       <use xlink:href="#ArialMT-61" x="261.230469"/>
       <use xlink:href="#ArialMT-72" x="316.845703"/>
       <use xlink:href="#ArialMT-79" x="350.146484"/>
      </g>
     </g>
    </g>
    <g id="xtick_3">
     <g id="line2d_3">
      <g>
       <use xlink:href="#mf3c6cce443" x="171.604063" y="333.36" style="stroke: #000000; stroke-width: 0.8"/>
      </g>
     </g>
     <g id="text_3">
      <!-- March -->
      <g transform="translate(175.223281 379.25375) rotate(-90) scale(0.14 -0.14)">
       <defs>
        <path id="ArialMT-4d" d="M 475 0 
L 475 4581 
L 1388 4581 
L 2472 1338 
Q 2622 884 2691 659 
Q 2769 909 2934 1394 
L 4031 4581 
L 4847 4581 
L 4847 0 
L 4263 0 
L 4263 3834 
L 2931 0 
L 2384 0 
L 1059 3900 
L 1059 0 
L 475 0 
z
" transform="scale(0.015625)"/>
        <path id="ArialMT-63" d="M 2588 1216 
L 3141 1144 
Q 3050 572 2676 248 
Q 2303 -75 1759 -75 
Q 1078 -75 664 370 
Q 250 816 250 1647 
Q 250 2184 428 2587 
Q 606 2991 970 3192 
Q 1334 3394 1763 3394 
Q 2303 3394 2647 3120 
Q 2991 2847 3088 2344 
L 2541 2259 
Q 2463 2594 2264 2762 
Q 2066 2931 1784 2931 
Q 1359 2931 1093 2626 
Q 828 2322 828 1663 
Q 828 994 1084 691 
Q 1341 388 1753 388 
Q 2084 388 2306 591 
Q 2528 794 2588 1216 
z
" transform="scale(0.015625)"/>
        <path id="ArialMT-68" d="M 422 0 
L 422 4581 
L 984 4581 
L 984 2938 
Q 1378 3394 1978 3394 
Q 2347 3394 2619 3248 
Q 2891 3103 3008 2847 
Q 3125 2591 3125 2103 
L 3125 0 
L 2563 0 
L 2563 2103 
Q 2563 2525 2380 2717 
Q 2197 2909 1863 2909 
Q 1613 2909 1392 2779 
Q 1172 2650 1078 2428 
Q 984 2206 984 1816 
L 984 0 
L 422 0 
z
" transform="scale(0.015625)"/>
       </defs>
       <use xlink:href="#ArialMT-4d"/>
       <use xlink:href="#ArialMT-61" x="83.300781"/>
       <use xlink:href="#ArialMT-72" x="138.916016"/>
       <use xlink:href="#ArialMT-63" x="172.216797"/>
       <use xlink:href="#ArialMT-68" x="222.216797"/>
      </g>
     </g>
    </g>
    <g id="xtick_4">
     <g id="line2d_4">
      <g>
       <use xlink:href="#mf3c6cce443" x="213.454063" y="333.36" style="stroke: #000000; stroke-width: 0.8"/>
      </g>
     </g>
     <g id="text_4">
      <!-- April -->
      <g transform="translate(217.073281 368.366562) rotate(-90) scale(0.14 -0.14)">
       <defs>
        <path id="ArialMT-41" d="M -9 0 
L 1750 4581 
L 2403 4581 
L 4278 0 
L 3588 0 
L 3053 1388 
L 1138 1388 
L 634 0 
L -9 0 
z
M 1313 1881 
L 2866 1881 
L 2388 3150 
Q 2169 3728 2063 4100 
Q 1975 3659 1816 3225 
L 1313 1881 
z
" transform="scale(0.015625)"/>
        <path id="ArialMT-70" d="M 422 -1272 
L 422 3319 
L 934 3319 
L 934 2888 
Q 1116 3141 1344 3267 
Q 1572 3394 1897 3394 
Q 2322 3394 2647 3175 
Q 2972 2956 3137 2557 
Q 3303 2159 3303 1684 
Q 3303 1175 3120 767 
Q 2938 359 2589 142 
Q 2241 -75 1856 -75 
Q 1575 -75 1351 44 
Q 1128 163 984 344 
L 984 -1272 
L 422 -1272 
z
M 931 1641 
Q 931 1000 1190 694 
Q 1450 388 1819 388 
Q 2194 388 2461 705 
Q 2728 1022 2728 1688 
Q 2728 2322 2467 2637 
Q 2206 2953 1844 2953 
Q 1484 2953 1207 2617 
Q 931 2281 931 1641 
z
" transform="scale(0.015625)"/>
        <path id="ArialMT-69" d="M 425 3934 
L 425 4581 
L 988 4581 
L 988 3934 
L 425 3934 
z
M 425 0 
L 425 3319 
L 988 3319 
L 988 0 
L 425 0 
z
" transform="scale(0.015625)"/>
        <path id="ArialMT-6c" d="M 409 0 
L 409 4581 
L 972 4581 
L 972 0 
L 409 0 
z
" transform="scale(0.015625)"/>
       </defs>
       <use xlink:href="#ArialMT-41"/>
       <use xlink:href="#ArialMT-70" x="66.699219"/>
       <use xlink:href="#ArialMT-72" x="122.314453"/>
       <use xlink:href="#ArialMT-69" x="155.615234"/>
       <use xlink:href="#ArialMT-6c" x="177.832031"/>
      </g>
     </g>
    </g>
    <g id="xtick_5">
     <g id="line2d_5">
      <g>
       <use xlink:href="#mf3c6cce443" x="255.304063" y="333.36" style="stroke: #000000; stroke-width: 0.8"/>
      </g>
     </g>
     <g id="text_5">
      <!-- May -->
      <g transform="translate(258.84125 366.806875) rotate(-90) scale(0.14 -0.14)">
       <use xlink:href="#ArialMT-4d"/>
       <use xlink:href="#ArialMT-61" x="83.300781"/>
       <use xlink:href="#ArialMT-79" x="138.916016"/>
      </g>
     </g>
    </g>
    <g id="xtick_6">
     <g id="line2d_6">
      <g>
       <use xlink:href="#mf3c6cce443" x="297.154063" y="333.36" style="stroke: #000000; stroke-width: 0.8"/>
      </g>
     </g>
     <g id="text_6">
      <!-- June -->
      <g transform="translate(300.773281 370.715937) rotate(-90) scale(0.14 -0.14)">
       <use xlink:href="#ArialMT-4a"/>
       <use xlink:href="#ArialMT-75" x="50"/>
       <use xlink:href="#ArialMT-6e" x="105.615234"/>
       <use xlink:href="#ArialMT-65" x="161.230469"/>
      </g>
     </g>
    </g>
    <g id="xtick_7">
     <g id="line2d_7">
      <g>
       <use xlink:href="#mf3c6cce443" x="339.004063" y="333.36" style="stroke: #000000; stroke-width: 0.8"/>
      </g>
     </g>
     <g id="text_7">
      <!-- July -->
      <g transform="translate(342.54125 365.255938) rotate(-90) scale(0.14 -0.14)">
       <use xlink:href="#ArialMT-4a"/>
       <use xlink:href="#ArialMT-75" x="50"/>
       <use xlink:href="#ArialMT-6c" x="105.615234"/>
       <use xlink:href="#ArialMT-79" x="127.832031"/>
      </g>
     </g>
    </g>
    <g id="xtick_8">
     <g id="line2d_8">
      <g>
       <use xlink:href="#mf3c6cce443" x="380.854063" y="333.36" style="stroke: #000000; stroke-width: 0.8"/>
      </g>
     </g>
     <g id="text_8">
      <!-- August -->
      <g transform="translate(384.39125 383.94375) rotate(-90) scale(0.14 -0.14)">
       <defs>
        <path id="ArialMT-67" d="M 319 -275 
L 866 -356 
Q 900 -609 1056 -725 
Q 1266 -881 1628 -881 
Q 2019 -881 2231 -725 
Q 2444 -569 2519 -288 
Q 2563 -116 2559 434 
Q 2191 0 1641 0 
Q 956 0 581 494 
Q 206 988 206 1678 
Q 206 2153 378 2554 
Q 550 2956 876 3175 
Q 1203 3394 1644 3394 
Q 2231 3394 2613 2919 
L 2613 3319 
L 3131 3319 
L 3131 450 
Q 3131 -325 2973 -648 
Q 2816 -972 2473 -1159 
Q 2131 -1347 1631 -1347 
Q 1038 -1347 672 -1080 
Q 306 -813 319 -275 
z
M 784 1719 
Q 784 1066 1043 766 
Q 1303 466 1694 466 
Q 2081 466 2343 764 
Q 2606 1063 2606 1700 
Q 2606 2309 2336 2618 
Q 2066 2928 1684 2928 
Q 1309 2928 1046 2623 
Q 784 2319 784 1719 
z
" transform="scale(0.015625)"/>
        <path id="ArialMT-73" d="M 197 991 
L 753 1078 
Q 800 744 1014 566 
Q 1228 388 1613 388 
Q 2000 388 2187 545 
Q 2375 703 2375 916 
Q 2375 1106 2209 1216 
Q 2094 1291 1634 1406 
Q 1016 1563 777 1677 
Q 538 1791 414 1992 
Q 291 2194 291 2438 
Q 291 2659 392 2848 
Q 494 3038 669 3163 
Q 800 3259 1026 3326 
Q 1253 3394 1513 3394 
Q 1903 3394 2198 3281 
Q 2494 3169 2634 2976 
Q 2775 2784 2828 2463 
L 2278 2388 
Q 2241 2644 2061 2787 
Q 1881 2931 1553 2931 
Q 1166 2931 1000 2803 
Q 834 2675 834 2503 
Q 834 2394 903 2306 
Q 972 2216 1119 2156 
Q 1203 2125 1616 2013 
Q 2213 1853 2448 1751 
Q 2684 1650 2818 1456 
Q 2953 1263 2953 975 
Q 2953 694 2789 445 
Q 2625 197 2315 61 
Q 2006 -75 1616 -75 
Q 969 -75 630 194 
Q 291 463 197 991 
z
" transform="scale(0.015625)"/>
        <path id="ArialMT-74" d="M 1650 503 
L 1731 6 
Q 1494 -44 1306 -44 
Q 1000 -44 831 53 
Q 663 150 594 308 
Q 525 466 525 972 
L 525 2881 
L 113 2881 
L 113 3319 
L 525 3319 
L 525 4141 
L 1084 4478 
L 1084 3319 
L 1650 3319 
L 1650 2881 
L 1084 2881 
L 1084 941 
Q 1084 700 1114 631 
Q 1144 563 1211 522 
Q 1278 481 1403 481 
Q 1497 481 1650 503 
z
" transform="scale(0.015625)"/>
       </defs>
       <use xlink:href="#ArialMT-41"/>
       <use xlink:href="#ArialMT-75" x="66.699219"/>
       <use xlink:href="#ArialMT-67" x="122.314453"/>
       <use xlink:href="#ArialMT-75" x="177.929688"/>
       <use xlink:href="#ArialMT-73" x="233.544922"/>
       <use xlink:href="#ArialMT-74" x="283.544922"/>
      </g>
     </g>
    </g>
    <g id="xtick_9">
     <g id="line2d_9">
      <g>
       <use xlink:href="#mf3c6cce443" x="422.704063" y="333.36" style="stroke: #000000; stroke-width: 0.8"/>
      </g>
     </g>
     <g id="text_9">
      <!-- September -->
      <g transform="translate(426.408594 408.8375) rotate(-90) scale(0.14 -0.14)">
       <defs>
        <path id="ArialMT-53" d="M 288 1472 
L 859 1522 
Q 900 1178 1048 958 
Q 1197 738 1509 602 
Q 1822 466 2213 466 
Q 2559 466 2825 569 
Q 3091 672 3220 851 
Q 3350 1031 3350 1244 
Q 3350 1459 3225 1620 
Q 3100 1781 2813 1891 
Q 2628 1963 1997 2114 
Q 1366 2266 1113 2400 
Q 784 2572 623 2826 
Q 463 3081 463 3397 
Q 463 3744 659 4045 
Q 856 4347 1234 4503 
Q 1613 4659 2075 4659 
Q 2584 4659 2973 4495 
Q 3363 4331 3572 4012 
Q 3781 3694 3797 3291 
L 3216 3247 
Q 3169 3681 2898 3903 
Q 2628 4125 2100 4125 
Q 1550 4125 1298 3923 
Q 1047 3722 1047 3438 
Q 1047 3191 1225 3031 
Q 1400 2872 2139 2705 
Q 2878 2538 3153 2413 
Q 3553 2228 3743 1945 
Q 3934 1663 3934 1294 
Q 3934 928 3725 604 
Q 3516 281 3123 101 
Q 2731 -78 2241 -78 
Q 1619 -78 1198 103 
Q 778 284 539 648 
Q 300 1013 288 1472 
z
" transform="scale(0.015625)"/>
        <path id="ArialMT-6d" d="M 422 0 
L 422 3319 
L 925 3319 
L 925 2853 
Q 1081 3097 1340 3245 
Q 1600 3394 1931 3394 
Q 2300 3394 2536 3241 
Q 2772 3088 2869 2813 
Q 3263 3394 3894 3394 
Q 4388 3394 4653 3120 
Q 4919 2847 4919 2278 
L 4919 0 
L 4359 0 
L 4359 2091 
Q 4359 2428 4304 2576 
Q 4250 2725 4106 2815 
Q 3963 2906 3769 2906 
Q 3419 2906 3187 2673 
Q 2956 2441 2956 1928 
L 2956 0 
L 2394 0 
L 2394 2156 
Q 2394 2531 2256 2718 
Q 2119 2906 1806 2906 
Q 1569 2906 1367 2781 
Q 1166 2656 1075 2415 
Q 984 2175 984 1722 
L 984 0 
L 422 0 
z
" transform="scale(0.015625)"/>
       </defs>
       <use xlink:href="#ArialMT-53"/>
       <use xlink:href="#ArialMT-65" x="66.699219"/>
       <use xlink:href="#ArialMT-70" x="122.314453"/>
       <use xlink:href="#ArialMT-74" x="177.929688"/>
       <use xlink:href="#ArialMT-65" x="205.712891"/>
       <use xlink:href="#ArialMT-6d" x="261.328125"/>
       <use xlink:href="#ArialMT-62" x="344.628906"/>
       <use xlink:href="#ArialMT-65" x="400.244141"/>
       <use xlink:href="#ArialMT-72" x="455.859375"/>
      </g>
     </g>
    </g>
    <g id="xtick_10">
     <g id="line2d_10">
      <g>
       <use xlink:href="#mf3c6cce443" x="464.554063" y="333.36" style="stroke: #000000; stroke-width: 0.8"/>
      </g>
     </g>
     <g id="text_10">
      <!-- October -->
      <g transform="translate(468.173281 390.15625) rotate(-90) scale(0.14 -0.14)">
       <defs>
        <path id="ArialMT-4f" d="M 309 2231 
Q 309 3372 921 4017 
Q 1534 4663 2503 4663 
Q 3138 4663 3647 4359 
Q 4156 4056 4423 3514 
Q 4691 2972 4691 2284 
Q 4691 1588 4409 1038 
Q 4128 488 3612 205 
Q 3097 -78 2500 -78 
Q 1853 -78 1343 234 
Q 834 547 571 1087 
Q 309 1628 309 2231 
z
M 934 2222 
Q 934 1394 1379 917 
Q 1825 441 2497 441 
Q 3181 441 3623 922 
Q 4066 1403 4066 2288 
Q 4066 2847 3877 3264 
Q 3688 3681 3323 3911 
Q 2959 4141 2506 4141 
Q 1863 4141 1398 3698 
Q 934 3256 934 2222 
z
" transform="scale(0.015625)"/>
        <path id="ArialMT-6f" d="M 213 1659 
Q 213 2581 725 3025 
Q 1153 3394 1769 3394 
Q 2453 3394 2887 2945 
Q 3322 2497 3322 1706 
Q 3322 1066 3130 698 
Q 2938 331 2570 128 
Q 2203 -75 1769 -75 
Q 1072 -75 642 372 
Q 213 819 213 1659 
z
M 791 1659 
Q 791 1022 1069 705 
Q 1347 388 1769 388 
Q 2188 388 2466 706 
Q 2744 1025 2744 1678 
Q 2744 2294 2464 2611 
Q 2184 2928 1769 2928 
Q 1347 2928 1069 2612 
Q 791 2297 791 1659 
z
" transform="scale(0.015625)"/>
       </defs>
       <use xlink:href="#ArialMT-4f"/>
       <use xlink:href="#ArialMT-63" x="77.783203"/>
       <use xlink:href="#ArialMT-74" x="127.783203"/>
       <use xlink:href="#ArialMT-6f" x="155.566406"/>
       <use xlink:href="#ArialMT-62" x="211.181641"/>
       <use xlink:href="#ArialMT-65" x="266.796875"/>
       <use xlink:href="#ArialMT-72" x="322.412109"/>
      </g>
     </g>
    </g>
    <g id="xtick_11">
     <g id="line2d_11">
      <g>
       <use xlink:href="#mf3c6cce443" x="506.404063" y="333.36" style="stroke: #000000; stroke-width: 0.8"/>
      </g>
     </g>
     <g id="text_11">
      <!-- November -->
      <g transform="translate(510.023281 404.935) rotate(-90) scale(0.14 -0.14)">
       <defs>
        <path id="ArialMT-4e" d="M 488 0 
L 488 4581 
L 1109 4581 
L 3516 984 
L 3516 4581 
L 4097 4581 
L 4097 0 
L 3475 0 
L 1069 3600 
L 1069 0 
L 488 0 
z
" transform="scale(0.015625)"/>
        <path id="ArialMT-76" d="M 1344 0 
L 81 3319 
L 675 3319 
L 1388 1331 
Q 1503 1009 1600 663 
Q 1675 925 1809 1294 
L 2547 3319 
L 3125 3319 
L 1869 0 
L 1344 0 
z
" transform="scale(0.015625)"/>
       </defs>
       <use xlink:href="#ArialMT-4e"/>
       <use xlink:href="#ArialMT-6f" x="72.216797"/>
       <use xlink:href="#ArialMT-76" x="127.832031"/>
       <use xlink:href="#ArialMT-65" x="177.832031"/>
       <use xlink:href="#ArialMT-6d" x="233.447266"/>
       <use xlink:href="#ArialMT-62" x="316.748047"/>
       <use xlink:href="#ArialMT-65" x="372.363281"/>
       <use xlink:href="#ArialMT-72" x="427.978516"/>
      </g>
     </g>
    </g>
    <g id="xtick_12">
     <g id="line2d_12">
      <g>
       <use xlink:href="#mf3c6cce443" x="548.254063" y="333.36" style="stroke: #000000; stroke-width: 0.8"/>
      </g>
     </g>
     <g id="text_12">
      <!-- December -->
      <g transform="translate(551.873281 404.935) rotate(-90) scale(0.14 -0.14)">
       <defs>
        <path id="ArialMT-44" d="M 494 0 
L 494 4581 
L 2072 4581 
Q 2606 4581 2888 4516 
Q 3281 4425 3559 4188 
Q 3922 3881 4101 3404 
Q 4281 2928 4281 2316 
Q 4281 1794 4159 1391 
Q 4038 988 3847 723 
Q 3656 459 3429 307 
Q 3203 156 2883 78 
Q 2563 0 2147 0 
L 494 0 
z
M 1100 541 
L 2078 541 
Q 2531 541 2789 625 
Q 3047 709 3200 863 
Q 3416 1078 3536 1442 
Q 3656 1806 3656 2325 
Q 3656 3044 3420 3430 
Q 3184 3816 2847 3947 
Q 2603 4041 2063 4041 
L 1100 4041 
L 1100 541 
z
" transform="scale(0.015625)"/>
       </defs>
       <use xlink:href="#ArialMT-44"/>
       <use xlink:href="#ArialMT-65" x="72.216797"/>
       <use xlink:href="#ArialMT-63" x="127.832031"/>
       <use xlink:href="#ArialMT-65" x="177.832031"/>
       <use xlink:href="#ArialMT-6d" x="233.447266"/>
       <use xlink:href="#ArialMT-62" x="316.748047"/>
       <use xlink:href="#ArialMT-65" x="372.363281"/>
       <use xlink:href="#ArialMT-72" x="427.978516"/>
      </g>
     </g>
    </g>
   </g>
   <g id="matplotlib.axis_2">
    <g id="ytick_1">
     <g id="line2d_13">
      <defs>
       <path id="m36ef57aa15" d="M 0 0 
L -3.5 0 
" style="stroke: #000000; stroke-width: 0.8"/>
      </defs>
      <g>
       <use xlink:href="#m36ef57aa15" x="66.979063" y="333.36" style="stroke: #000000; stroke-width: 0.8"/>
      </g>
     </g>
     <g id="text_13">
      <!-- 0% -->
      <g transform="translate(39.744688 338.370469) scale(0.14 -0.14)">
       <defs>
        <path id="ArialMT-30" d="M 266 2259 
Q 266 3072 433 3567 
Q 600 4063 929 4331 
Q 1259 4600 1759 4600 
Q 2128 4600 2406 4451 
Q 2684 4303 2865 4023 
Q 3047 3744 3150 3342 
Q 3253 2941 3253 2259 
Q 3253 1453 3087 958 
Q 2922 463 2592 192 
Q 2263 -78 1759 -78 
Q 1097 -78 719 397 
Q 266 969 266 2259 
z
M 844 2259 
Q 844 1131 1108 757 
Q 1372 384 1759 384 
Q 2147 384 2411 759 
Q 2675 1134 2675 2259 
Q 2675 3391 2411 3762 
Q 2147 4134 1753 4134 
Q 1366 4134 1134 3806 
Q 844 3388 844 2259 
z
" transform="scale(0.015625)"/>
        <path id="ArialMT-25" d="M 372 3481 
Q 372 3972 619 4315 
Q 866 4659 1334 4659 
Q 1766 4659 2048 4351 
Q 2331 4044 2331 3447 
Q 2331 2866 2045 2552 
Q 1759 2238 1341 2238 
Q 925 2238 648 2547 
Q 372 2856 372 3481 
z
M 1350 4272 
Q 1141 4272 1002 4090 
Q 863 3909 863 3425 
Q 863 2984 1003 2804 
Q 1144 2625 1350 2625 
Q 1563 2625 1702 2806 
Q 1841 2988 1841 3469 
Q 1841 3913 1700 4092 
Q 1559 4272 1350 4272 
z
M 1353 -169 
L 3859 4659 
L 4316 4659 
L 1819 -169 
L 1353 -169 
z
M 3334 1075 
Q 3334 1569 3581 1911 
Q 3828 2253 4300 2253 
Q 4731 2253 5014 1945 
Q 5297 1638 5297 1041 
Q 5297 459 5011 145 
Q 4725 -169 4303 -169 
Q 3888 -169 3611 142 
Q 3334 453 3334 1075 
z
M 4316 1866 
Q 4103 1866 3964 1684 
Q 3825 1503 3825 1019 
Q 3825 581 3965 400 
Q 4106 219 4313 219 
Q 4528 219 4667 400 
Q 4806 581 4806 1063 
Q 4806 1506 4665 1686 
Q 4525 1866 4316 1866 
z
" transform="scale(0.015625)"/>
       </defs>
       <use xlink:href="#ArialMT-30"/>
       <use xlink:href="#ArialMT-25" x="55.615234"/>
      </g>
     </g>
    </g>
    <g id="ytick_2">
     <g id="line2d_14">
      <g>
       <use xlink:href="#m36ef57aa15" x="66.979063" y="271.234286" style="stroke: #000000; stroke-width: 0.8"/>
      </g>
     </g>
     <g id="text_14">
      <!-- 20% -->
      <g transform="translate(31.959375 276.244754) scale(0.14 -0.14)">
       <defs>
        <path id="ArialMT-32" d="M 3222 541 
L 3222 0 
L 194 0 
Q 188 203 259 391 
Q 375 700 629 1000 
Q 884 1300 1366 1694 
Q 2113 2306 2375 2664 
Q 2638 3022 2638 3341 
Q 2638 3675 2398 3904 
Q 2159 4134 1775 4134 
Q 1369 4134 1125 3890 
Q 881 3647 878 3216 
L 300 3275 
Q 359 3922 746 4261 
Q 1134 4600 1788 4600 
Q 2447 4600 2831 4234 
Q 3216 3869 3216 3328 
Q 3216 3053 3103 2787 
Q 2991 2522 2730 2228 
Q 2469 1934 1863 1422 
Q 1356 997 1212 845 
Q 1069 694 975 541 
L 3222 541 
z
" transform="scale(0.015625)"/>
       </defs>
       <use xlink:href="#ArialMT-32"/>
       <use xlink:href="#ArialMT-30" x="55.615234"/>
       <use xlink:href="#ArialMT-25" x="111.230469"/>
      </g>
     </g>
    </g>
    <g id="ytick_3">
     <g id="line2d_15">
      <g>
       <use xlink:href="#m36ef57aa15" x="66.979063" y="209.108571" style="stroke: #000000; stroke-width: 0.8"/>
      </g>
     </g>
     <g id="text_15">
      <!-- 40% -->
      <g transform="translate(31.959375 214.11904) scale(0.14 -0.14)">
       <defs>
        <path id="ArialMT-34" d="M 2069 0 
L 2069 1097 
L 81 1097 
L 81 1613 
L 2172 4581 
L 2631 4581 
L 2631 1613 
L 3250 1613 
L 3250 1097 
L 2631 1097 
L 2631 0 
L 2069 0 
z
M 2069 1613 
L 2069 3678 
L 634 1613 
L 2069 1613 
z
" transform="scale(0.015625)"/>
       </defs>
       <use xlink:href="#ArialMT-34"/>
       <use xlink:href="#ArialMT-30" x="55.615234"/>
       <use xlink:href="#ArialMT-25" x="111.230469"/>
      </g>
     </g>
    </g>
    <g id="ytick_4">
     <g id="line2d_16">
      <g>
       <use xlink:href="#m36ef57aa15" x="66.979063" y="146.982857" style="stroke: #000000; stroke-width: 0.8"/>
      </g>
     </g>
     <g id="text_16">
      <!-- 60% -->
      <g transform="translate(31.959375 151.993326) scale(0.14 -0.14)">
       <defs>
        <path id="ArialMT-36" d="M 3184 3459 
L 2625 3416 
Q 2550 3747 2413 3897 
Q 2184 4138 1850 4138 
Q 1581 4138 1378 3988 
Q 1113 3794 959 3422 
Q 806 3050 800 2363 
Q 1003 2672 1297 2822 
Q 1591 2972 1913 2972 
Q 2475 2972 2870 2558 
Q 3266 2144 3266 1488 
Q 3266 1056 3080 686 
Q 2894 316 2569 119 
Q 2244 -78 1831 -78 
Q 1128 -78 684 439 
Q 241 956 241 2144 
Q 241 3472 731 4075 
Q 1159 4600 1884 4600 
Q 2425 4600 2770 4297 
Q 3116 3994 3184 3459 
z
M 888 1484 
Q 888 1194 1011 928 
Q 1134 663 1356 523 
Q 1578 384 1822 384 
Q 2178 384 2434 671 
Q 2691 959 2691 1453 
Q 2691 1928 2437 2201 
Q 2184 2475 1800 2475 
Q 1419 2475 1153 2201 
Q 888 1928 888 1484 
z
" transform="scale(0.015625)"/>
       </defs>
       <use xlink:href="#ArialMT-36"/>
       <use xlink:href="#ArialMT-30" x="55.615234"/>
       <use xlink:href="#ArialMT-25" x="111.230469"/>
      </g>
     </g>
    </g>
    <g id="ytick_5">
     <g id="line2d_17">
      <g>
       <use xlink:href="#m36ef57aa15" x="66.979063" y="84.857143" style="stroke: #000000; stroke-width: 0.8"/>
      </g>
     </g>
     <g id="text_17">
      <!-- 80% -->
      <g transform="translate(31.959375 89.867612) scale(0.14 -0.14)">
       <defs>
        <path id="ArialMT-38" d="M 1131 2484 
Q 781 2613 612 2850 
Q 444 3088 444 3419 
Q 444 3919 803 4259 
Q 1163 4600 1759 4600 
Q 2359 4600 2725 4251 
Q 3091 3903 3091 3403 
Q 3091 3084 2923 2848 
Q 2756 2613 2416 2484 
Q 2838 2347 3058 2040 
Q 3278 1734 3278 1309 
Q 3278 722 2862 322 
Q 2447 -78 1769 -78 
Q 1091 -78 675 323 
Q 259 725 259 1325 
Q 259 1772 486 2073 
Q 713 2375 1131 2484 
z
M 1019 3438 
Q 1019 3113 1228 2906 
Q 1438 2700 1772 2700 
Q 2097 2700 2305 2904 
Q 2513 3109 2513 3406 
Q 2513 3716 2298 3927 
Q 2084 4138 1766 4138 
Q 1444 4138 1231 3931 
Q 1019 3725 1019 3438 
z
M 838 1322 
Q 838 1081 952 856 
Q 1066 631 1291 507 
Q 1516 384 1775 384 
Q 2178 384 2440 643 
Q 2703 903 2703 1303 
Q 2703 1709 2433 1975 
Q 2163 2241 1756 2241 
Q 1359 2241 1098 1978 
Q 838 1716 838 1322 
z
" transform="scale(0.015625)"/>
       </defs>
       <use xlink:href="#ArialMT-38"/>
       <use xlink:href="#ArialMT-30" x="55.615234"/>
       <use xlink:href="#ArialMT-25" x="111.230469"/>
      </g>
     </g>
    </g>
    <g id="ytick_6">
     <g id="line2d_18">
      <g>
       <use xlink:href="#m36ef57aa15" x="66.979063" y="22.731429" style="stroke: #000000; stroke-width: 0.8"/>
      </g>
     </g>
     <g id="text_18">
      <!-- 100% -->
      <g transform="translate(24.174063 27.741897) scale(0.14 -0.14)">
       <defs>
        <path id="ArialMT-31" d="M 2384 0 
L 1822 0 
L 1822 3584 
Q 1619 3391 1289 3197 
Q 959 3003 697 2906 
L 697 3450 
Q 1169 3672 1522 3987 
Q 1875 4303 2022 4600 
L 2384 4600 
L 2384 0 
z
" transform="scale(0.015625)"/>
       </defs>
       <use xlink:href="#ArialMT-31"/>
       <use xlink:href="#ArialMT-30" x="55.615234"/>
       <use xlink:href="#ArialMT-30" x="111.230469"/>
       <use xlink:href="#ArialMT-25" x="166.845703"/>
      </g>
     </g>
    </g>
    <g id="text_19">
     <!-- Share of comments of a topic -->
     <g transform="translate(17.391562 261.318281) rotate(-90) scale(0.14 -0.14)">
      <defs>
       <path id="ArialMT-20" transform="scale(0.015625)"/>
       <path id="ArialMT-66" d="M 556 0 
L 556 2881 
L 59 2881 
L 59 3319 
L 556 3319 
L 556 3672 
Q 556 4006 616 4169 
Q 697 4388 901 4523 
Q 1106 4659 1475 4659 
Q 1713 4659 2000 4603 
L 1916 4113 
Q 1741 4144 1584 4144 
Q 1328 4144 1222 4034 
Q 1116 3925 1116 3625 
L 1116 3319 
L 1763 3319 
L 1763 2881 
L 1116 2881 
L 1116 0 
L 556 0 
z
" transform="scale(0.015625)"/>
      </defs>
      <use xlink:href="#ArialMT-53"/>
      <use xlink:href="#ArialMT-68" x="66.699219"/>
      <use xlink:href="#ArialMT-61" x="122.314453"/>
      <use xlink:href="#ArialMT-72" x="177.929688"/>
      <use xlink:href="#ArialMT-65" x="211.230469"/>
      <use xlink:href="#ArialMT-20" x="266.845703"/>
      <use xlink:href="#ArialMT-6f" x="294.628906"/>
      <use xlink:href="#ArialMT-66" x="350.244141"/>
      <use xlink:href="#ArialMT-20" x="378.027344"/>
      <use xlink:href="#ArialMT-63" x="405.810547"/>
      <use xlink:href="#ArialMT-6f" x="455.810547"/>
      <use xlink:href="#ArialMT-6d" x="511.425781"/>
      <use xlink:href="#ArialMT-6d" x="594.726562"/>
      <use xlink:href="#ArialMT-65" x="678.027344"/>
      <use xlink:href="#ArialMT-6e" x="733.642578"/>
      <use xlink:href="#ArialMT-74" x="789.257812"/>
      <use xlink:href="#ArialMT-73" x="817.041016"/>
      <use xlink:href="#ArialMT-20" x="867.041016"/>
      <use xlink:href="#ArialMT-6f" x="894.824219"/>
      <use xlink:href="#ArialMT-66" x="950.439453"/>
      <use xlink:href="#ArialMT-20" x="978.222656"/>
      <use xlink:href="#ArialMT-61" x="1006.005859"/>
      <use xlink:href="#ArialMT-20" x="1061.621094"/>
      <use xlink:href="#ArialMT-74" x="1089.404297"/>
      <use xlink:href="#ArialMT-6f" x="1117.1875"/>
      <use xlink:href="#ArialMT-70" x="1172.802734"/>
      <use xlink:href="#ArialMT-69" x="1228.417969"/>
      <use xlink:href="#ArialMT-63" x="1250.634766"/>
     </g>
    </g>
   </g>
   <g id="patch_123">
    <path d="M 66.979063 333.36 
L 66.979063 7.2 
" style="fill: none; stroke: #000000; stroke-width: 0.8; stroke-linejoin: miter; stroke-linecap: square"/>
   </g>
   <g id="patch_124">
    <path d="M 569.179063 333.36 
L 569.179063 7.2 
" style="fill: none; stroke: #000000; stroke-width: 0.8; stroke-linejoin: miter; stroke-linecap: square"/>
   </g>
   <g id="patch_125">
    <path d="M 66.979062 333.36 
L 569.179063 333.36 
" style="fill: none; stroke: #000000; stroke-width: 0.8; stroke-linejoin: miter; stroke-linecap: square"/>
   </g>
   <g id="patch_126">
    <path d="M 66.979062 7.2 
L 569.179063 7.2 
" style="fill: none; stroke: #000000; stroke-width: 0.8; stroke-linejoin: miter; stroke-linecap: square"/>
   </g>
   <g id="legend_1">
    <g id="patch_127">
     <path d="M 594.045063 261.908906 
L 911.921625 261.908906 
Q 914.721625 261.908906 914.721625 259.108906 
L 914.721625 81.451094 
Q 914.721625 78.651094 911.921625 78.651094 
L 594.045063 78.651094 
Q 591.245063 78.651094 591.245063 81.451094 
L 591.245063 259.108906 
Q 591.245063 261.908906 594.045063 261.908906 
z
" style="fill: #ffffff; opacity: 0.8; stroke: #cccccc; stroke-linejoin: miter"/>
    </g>
    <g id="patch_128">
     <path d="M 596.845063 94.272031 
L 624.845063 94.272031 
L 624.845063 84.472031 
L 596.845063 84.472031 
z
" style="fill: #bab0ab"/>
    </g>
    <g id="text_20">
     <!-- greta_thunberg_girl_activist -->
     <g transform="translate(636.045063 94.272031) scale(0.14 -0.14)">
      <defs>
       <path id="ArialMT-5f" d="M -97 -1272 
L -97 -866 
L 3631 -866 
L 3631 -1272 
L -97 -1272 
z
" transform="scale(0.015625)"/>
      </defs>
      <use xlink:href="#ArialMT-67"/>
      <use xlink:href="#ArialMT-72" x="55.615234"/>
      <use xlink:href="#ArialMT-65" x="88.916016"/>
      <use xlink:href="#ArialMT-74" x="144.53125"/>
      <use xlink:href="#ArialMT-61" x="172.314453"/>
      <use xlink:href="#ArialMT-5f" x="227.929688"/>
      <use xlink:href="#ArialMT-74" x="283.544922"/>
      <use xlink:href="#ArialMT-68" x="311.328125"/>
      <use xlink:href="#ArialMT-75" x="366.943359"/>
      <use xlink:href="#ArialMT-6e" x="422.558594"/>
      <use xlink:href="#ArialMT-62" x="478.173828"/>
      <use xlink:href="#ArialMT-65" x="533.789062"/>
      <use xlink:href="#ArialMT-72" x="589.404297"/>
      <use xlink:href="#ArialMT-67" x="622.705078"/>
      <use xlink:href="#ArialMT-5f" x="678.320312"/>
      <use xlink:href="#ArialMT-67" x="733.935547"/>
      <use xlink:href="#ArialMT-69" x="789.550781"/>
      <use xlink:href="#ArialMT-72" x="811.767578"/>
      <use xlink:href="#ArialMT-6c" x="845.068359"/>
      <use xlink:href="#ArialMT-5f" x="867.285156"/>
      <use xlink:href="#ArialMT-61" x="922.900391"/>
      <use xlink:href="#ArialMT-63" x="978.515625"/>
      <use xlink:href="#ArialMT-74" x="1028.515625"/>
      <use xlink:href="#ArialMT-69" x="1056.298828"/>
      <use xlink:href="#ArialMT-76" x="1078.515625"/>
      <use xlink:href="#ArialMT-69" x="1128.515625"/>
      <use xlink:href="#ArialMT-73" x="1150.732422"/>
      <use xlink:href="#ArialMT-74" x="1200.732422"/>
     </g>
    </g>
    <g id="patch_129">
     <path d="M 596.845063 114.239531 
L 624.845063 114.239531 
L 624.845063 104.439531 
L 596.845063 104.439531 
z
" style="fill: #ff9da7"/>
    </g>
    <g id="text_21">
     <!-- nuclear_solar_energy_power -->
     <g transform="translate(636.045063 114.239531) scale(0.14 -0.14)">
      <defs>
       <path id="ArialMT-77" d="M 1034 0 
L 19 3319 
L 600 3319 
L 1128 1403 
L 1325 691 
Q 1338 744 1497 1375 
L 2025 3319 
L 2603 3319 
L 3100 1394 
L 3266 759 
L 3456 1400 
L 4025 3319 
L 4572 3319 
L 3534 0 
L 2950 0 
L 2422 1988 
L 2294 2553 
L 1622 0 
L 1034 0 
z
" transform="scale(0.015625)"/>
      </defs>
      <use xlink:href="#ArialMT-6e"/>
      <use xlink:href="#ArialMT-75" x="55.615234"/>
      <use xlink:href="#ArialMT-63" x="111.230469"/>
      <use xlink:href="#ArialMT-6c" x="161.230469"/>
      <use xlink:href="#ArialMT-65" x="183.447266"/>
      <use xlink:href="#ArialMT-61" x="239.0625"/>
      <use xlink:href="#ArialMT-72" x="294.677734"/>
      <use xlink:href="#ArialMT-5f" x="327.978516"/>
      <use xlink:href="#ArialMT-73" x="383.59375"/>
      <use xlink:href="#ArialMT-6f" x="433.59375"/>
      <use xlink:href="#ArialMT-6c" x="489.208984"/>
      <use xlink:href="#ArialMT-61" x="511.425781"/>
      <use xlink:href="#ArialMT-72" x="567.041016"/>
      <use xlink:href="#ArialMT-5f" x="600.341797"/>
      <use xlink:href="#ArialMT-65" x="655.957031"/>
      <use xlink:href="#ArialMT-6e" x="711.572266"/>
      <use xlink:href="#ArialMT-65" x="767.1875"/>
      <use xlink:href="#ArialMT-72" x="822.802734"/>
      <use xlink:href="#ArialMT-67" x="856.103516"/>
      <use xlink:href="#ArialMT-79" x="911.71875"/>
      <use xlink:href="#ArialMT-5f" x="961.71875"/>
      <use xlink:href="#ArialMT-70" x="1017.333984"/>
      <use xlink:href="#ArialMT-6f" x="1072.949219"/>
      <use xlink:href="#ArialMT-77" x="1128.564453"/>
      <use xlink:href="#ArialMT-65" x="1200.78125"/>
      <use xlink:href="#ArialMT-72" x="1256.396484"/>
     </g>
    </g>
    <g id="patch_130">
     <path d="M 596.845063 134.207031 
L 624.845063 134.207031 
L 624.845063 124.407031 
L 596.845063 124.407031 
z
" style="fill: #af7aa1"/>
    </g>
    <g id="text_22">
     <!-- cars_car_tesla_electric -->
     <g transform="translate(636.045063 134.207031) scale(0.14 -0.14)">
      <use xlink:href="#ArialMT-63"/>
      <use xlink:href="#ArialMT-61" x="50"/>
      <use xlink:href="#ArialMT-72" x="105.615234"/>
      <use xlink:href="#ArialMT-73" x="138.916016"/>
      <use xlink:href="#ArialMT-5f" x="188.916016"/>
      <use xlink:href="#ArialMT-63" x="244.53125"/>
      <use xlink:href="#ArialMT-61" x="294.53125"/>
      <use xlink:href="#ArialMT-72" x="350.146484"/>
      <use xlink:href="#ArialMT-5f" x="383.447266"/>
      <use xlink:href="#ArialMT-74" x="439.0625"/>
      <use xlink:href="#ArialMT-65" x="466.845703"/>
      <use xlink:href="#ArialMT-73" x="522.460938"/>
      <use xlink:href="#ArialMT-6c" x="572.460938"/>
      <use xlink:href="#ArialMT-61" x="594.677734"/>
      <use xlink:href="#ArialMT-5f" x="650.292969"/>
      <use xlink:href="#ArialMT-65" x="705.908203"/>
      <use xlink:href="#ArialMT-6c" x="761.523438"/>
      <use xlink:href="#ArialMT-65" x="783.740234"/>
      <use xlink:href="#ArialMT-63" x="839.355469"/>
      <use xlink:href="#ArialMT-74" x="889.355469"/>
      <use xlink:href="#ArialMT-72" x="917.138672"/>
      <use xlink:href="#ArialMT-69" x="950.439453"/>
      <use xlink:href="#ArialMT-63" x="972.65625"/>
     </g>
    </g>
    <g id="patch_131">
     <path d="M 596.845063 154.010469 
L 624.845063 154.010469 
L 624.845063 144.210469 
L 596.845063 144.210469 
z
" style="fill: #edc949"/>
    </g>
    <g id="text_23">
     <!-- capitalism_socialism_capitalist_communism -->
     <g transform="translate(636.045063 154.010469) scale(0.14 -0.14)">
      <use xlink:href="#ArialMT-63"/>
      <use xlink:href="#ArialMT-61" x="50"/>
      <use xlink:href="#ArialMT-70" x="105.615234"/>
      <use xlink:href="#ArialMT-69" x="161.230469"/>
      <use xlink:href="#ArialMT-74" x="183.447266"/>
      <use xlink:href="#ArialMT-61" x="211.230469"/>
      <use xlink:href="#ArialMT-6c" x="266.845703"/>
      <use xlink:href="#ArialMT-69" x="289.0625"/>
      <use xlink:href="#ArialMT-73" x="311.279297"/>
      <use xlink:href="#ArialMT-6d" x="361.279297"/>
      <use xlink:href="#ArialMT-5f" x="444.580078"/>
      <use xlink:href="#ArialMT-73" x="500.195312"/>
      <use xlink:href="#ArialMT-6f" x="550.195312"/>
      <use xlink:href="#ArialMT-63" x="605.810547"/>
      <use xlink:href="#ArialMT-69" x="655.810547"/>
      <use xlink:href="#ArialMT-61" x="678.027344"/>
      <use xlink:href="#ArialMT-6c" x="733.642578"/>
      <use xlink:href="#ArialMT-69" x="755.859375"/>
      <use xlink:href="#ArialMT-73" x="778.076172"/>
      <use xlink:href="#ArialMT-6d" x="828.076172"/>
      <use xlink:href="#ArialMT-5f" x="911.376953"/>
      <use xlink:href="#ArialMT-63" x="966.992188"/>
      <use xlink:href="#ArialMT-61" x="1016.992188"/>
      <use xlink:href="#ArialMT-70" x="1072.607422"/>
      <use xlink:href="#ArialMT-69" x="1128.222656"/>
      <use xlink:href="#ArialMT-74" x="1150.439453"/>
      <use xlink:href="#ArialMT-61" x="1178.222656"/>
      <use xlink:href="#ArialMT-6c" x="1233.837891"/>
      <use xlink:href="#ArialMT-69" x="1256.054688"/>
      <use xlink:href="#ArialMT-73" x="1278.271484"/>
      <use xlink:href="#ArialMT-74" x="1328.271484"/>
      <use xlink:href="#ArialMT-5f" x="1356.054688"/>
      <use xlink:href="#ArialMT-63" x="1411.669922"/>
      <use xlink:href="#ArialMT-6f" x="1461.669922"/>
      <use xlink:href="#ArialMT-6d" x="1517.285156"/>
      <use xlink:href="#ArialMT-6d" x="1600.585938"/>
      <use xlink:href="#ArialMT-75" x="1683.886719"/>
      <use xlink:href="#ArialMT-6e" x="1739.501953"/>
      <use xlink:href="#ArialMT-69" x="1795.117188"/>
      <use xlink:href="#ArialMT-73" x="1817.333984"/>
      <use xlink:href="#ArialMT-6d" x="1867.333984"/>
     </g>
    </g>
    <g id="patch_132">
     <path d="M 596.845063 173.813906 
L 624.845063 173.813906 
L 624.845063 164.013906 
L 596.845063 164.013906 
z
" style="fill: #59a14f"/>
    </g>
    <g id="text_24">
     <!-- canada_alberta_trudeau_ndp -->
     <g transform="translate(636.045063 173.813906) scale(0.14 -0.14)">
      <defs>
       <path id="ArialMT-64" d="M 2575 0 
L 2575 419 
Q 2259 -75 1647 -75 
Q 1250 -75 917 144 
Q 584 363 401 755 
Q 219 1147 219 1656 
Q 219 2153 384 2558 
Q 550 2963 881 3178 
Q 1213 3394 1622 3394 
Q 1922 3394 2156 3267 
Q 2391 3141 2538 2938 
L 2538 4581 
L 3097 4581 
L 3097 0 
L 2575 0 
z
M 797 1656 
Q 797 1019 1065 703 
Q 1334 388 1700 388 
Q 2069 388 2326 689 
Q 2584 991 2584 1609 
Q 2584 2291 2321 2609 
Q 2059 2928 1675 2928 
Q 1300 2928 1048 2622 
Q 797 2316 797 1656 
z
" transform="scale(0.015625)"/>
      </defs>
      <use xlink:href="#ArialMT-63"/>
      <use xlink:href="#ArialMT-61" x="50"/>
      <use xlink:href="#ArialMT-6e" x="105.615234"/>
      <use xlink:href="#ArialMT-61" x="161.230469"/>
      <use xlink:href="#ArialMT-64" x="216.845703"/>
      <use xlink:href="#ArialMT-61" x="272.460938"/>
      <use xlink:href="#ArialMT-5f" x="328.076172"/>
      <use xlink:href="#ArialMT-61" x="383.691406"/>
      <use xlink:href="#ArialMT-6c" x="439.306641"/>
      <use xlink:href="#ArialMT-62" x="461.523438"/>
      <use xlink:href="#ArialMT-65" x="517.138672"/>
      <use xlink:href="#ArialMT-72" x="572.753906"/>
      <use xlink:href="#ArialMT-74" x="606.054688"/>
      <use xlink:href="#ArialMT-61" x="633.837891"/>
      <use xlink:href="#ArialMT-5f" x="689.453125"/>
      <use xlink:href="#ArialMT-74" x="745.068359"/>
      <use xlink:href="#ArialMT-72" x="772.851562"/>
      <use xlink:href="#ArialMT-75" x="806.152344"/>
      <use xlink:href="#ArialMT-64" x="861.767578"/>
      <use xlink:href="#ArialMT-65" x="917.382812"/>
      <use xlink:href="#ArialMT-61" x="972.998047"/>
      <use xlink:href="#ArialMT-75" x="1028.613281"/>
      <use xlink:href="#ArialMT-5f" x="1084.228516"/>
      <use xlink:href="#ArialMT-6e" x="1139.84375"/>
      <use xlink:href="#ArialMT-64" x="1195.458984"/>
      <use xlink:href="#ArialMT-70" x="1251.074219"/>
     </g>
    </g>
    <g id="patch_133">
     <path d="M 596.845063 193.787969 
L 624.845063 193.787969 
L 624.845063 183.987969 
L 596.845063 183.987969 
z
" style="fill: #76b7b2"/>
    </g>
    <g id="text_25">
     <!-- science_scientists_consensus_scientific -->
     <g transform="translate(636.045063 193.787969) scale(0.14 -0.14)">
      <use xlink:href="#ArialMT-73"/>
      <use xlink:href="#ArialMT-63" x="50"/>
      <use xlink:href="#ArialMT-69" x="100"/>
      <use xlink:href="#ArialMT-65" x="122.216797"/>
      <use xlink:href="#ArialMT-6e" x="177.832031"/>
      <use xlink:href="#ArialMT-63" x="233.447266"/>
      <use xlink:href="#ArialMT-65" x="283.447266"/>
      <use xlink:href="#ArialMT-5f" x="339.0625"/>
      <use xlink:href="#ArialMT-73" x="394.677734"/>
      <use xlink:href="#ArialMT-63" x="444.677734"/>
      <use xlink:href="#ArialMT-69" x="494.677734"/>
      <use xlink:href="#ArialMT-65" x="516.894531"/>
      <use xlink:href="#ArialMT-6e" x="572.509766"/>
      <use xlink:href="#ArialMT-74" x="628.125"/>
      <use xlink:href="#ArialMT-69" x="655.908203"/>
      <use xlink:href="#ArialMT-73" x="678.125"/>
      <use xlink:href="#ArialMT-74" x="728.125"/>
      <use xlink:href="#ArialMT-73" x="755.908203"/>
      <use xlink:href="#ArialMT-5f" x="805.908203"/>
      <use xlink:href="#ArialMT-63" x="861.523438"/>
      <use xlink:href="#ArialMT-6f" x="911.523438"/>
      <use xlink:href="#ArialMT-6e" x="967.138672"/>
      <use xlink:href="#ArialMT-73" x="1022.753906"/>
      <use xlink:href="#ArialMT-65" x="1072.753906"/>
      <use xlink:href="#ArialMT-6e" x="1128.369141"/>
      <use xlink:href="#ArialMT-73" x="1183.984375"/>
      <use xlink:href="#ArialMT-75" x="1233.984375"/>
      <use xlink:href="#ArialMT-73" x="1289.599609"/>
      <use xlink:href="#ArialMT-5f" x="1339.599609"/>
      <use xlink:href="#ArialMT-73" x="1395.214844"/>
      <use xlink:href="#ArialMT-63" x="1445.214844"/>
      <use xlink:href="#ArialMT-69" x="1495.214844"/>
      <use xlink:href="#ArialMT-65" x="1517.431641"/>
      <use xlink:href="#ArialMT-6e" x="1573.046875"/>
      <use xlink:href="#ArialMT-74" x="1628.662109"/>
      <use xlink:href="#ArialMT-69" x="1656.445312"/>
      <use xlink:href="#ArialMT-66" x="1678.662109"/>
      <use xlink:href="#ArialMT-69" x="1706.445312"/>
      <use xlink:href="#ArialMT-63" x="1728.662109"/>
     </g>
    </g>
    <g id="patch_134">
     <path d="M 596.845063 213.591406 
L 624.845063 213.591406 
L 624.845063 203.791406 
L 596.845063 203.791406 
z
" style="fill: #e15759"/>
    </g>
    <g id="text_26">
     <!-- china_india_australia_chinese -->
     <g transform="translate(636.045063 213.591406) scale(0.14 -0.14)">
      <use xlink:href="#ArialMT-63"/>
      <use xlink:href="#ArialMT-68" x="50"/>
      <use xlink:href="#ArialMT-69" x="105.615234"/>
      <use xlink:href="#ArialMT-6e" x="127.832031"/>
      <use xlink:href="#ArialMT-61" x="183.447266"/>
      <use xlink:href="#ArialMT-5f" x="239.0625"/>
      <use xlink:href="#ArialMT-69" x="294.677734"/>
      <use xlink:href="#ArialMT-6e" x="316.894531"/>
      <use xlink:href="#ArialMT-64" x="372.509766"/>
      <use xlink:href="#ArialMT-69" x="428.125"/>
      <use xlink:href="#ArialMT-61" x="450.341797"/>
      <use xlink:href="#ArialMT-5f" x="505.957031"/>
      <use xlink:href="#ArialMT-61" x="561.572266"/>
      <use xlink:href="#ArialMT-75" x="617.1875"/>
      <use xlink:href="#ArialMT-73" x="672.802734"/>
      <use xlink:href="#ArialMT-74" x="722.802734"/>
      <use xlink:href="#ArialMT-72" x="750.585938"/>
      <use xlink:href="#ArialMT-61" x="783.886719"/>
      <use xlink:href="#ArialMT-6c" x="839.501953"/>
      <use xlink:href="#ArialMT-69" x="861.71875"/>
      <use xlink:href="#ArialMT-61" x="883.935547"/>
      <use xlink:href="#ArialMT-5f" x="939.550781"/>
      <use xlink:href="#ArialMT-63" x="995.166016"/>
      <use xlink:href="#ArialMT-68" x="1045.166016"/>
      <use xlink:href="#ArialMT-69" x="1100.78125"/>
      <use xlink:href="#ArialMT-6e" x="1122.998047"/>
      <use xlink:href="#ArialMT-65" x="1178.613281"/>
      <use xlink:href="#ArialMT-73" x="1234.228516"/>
      <use xlink:href="#ArialMT-65" x="1284.228516"/>
     </g>
    </g>
    <g id="patch_135">
     <path d="M 596.845063 233.394844 
L 624.845063 233.394844 
L 624.845063 223.594844 
L 596.845063 223.594844 
z
" style="fill: #f28e2c"/>
    </g>
    <g id="text_27">
     <!-- warming_global_temperature_atmosphere -->
     <g transform="translate(636.045063 233.394844) scale(0.14 -0.14)">
      <use xlink:href="#ArialMT-77"/>
      <use xlink:href="#ArialMT-61" x="72.216797"/>
      <use xlink:href="#ArialMT-72" x="127.832031"/>
      <use xlink:href="#ArialMT-6d" x="161.132812"/>
      <use xlink:href="#ArialMT-69" x="244.433594"/>
      <use xlink:href="#ArialMT-6e" x="266.650391"/>
      <use xlink:href="#ArialMT-67" x="322.265625"/>
      <use xlink:href="#ArialMT-5f" x="377.880859"/>
      <use xlink:href="#ArialMT-67" x="433.496094"/>
      <use xlink:href="#ArialMT-6c" x="489.111328"/>
      <use xlink:href="#ArialMT-6f" x="511.328125"/>
      <use xlink:href="#ArialMT-62" x="566.943359"/>
      <use xlink:href="#ArialMT-61" x="622.558594"/>
      <use xlink:href="#ArialMT-6c" x="678.173828"/>
      <use xlink:href="#ArialMT-5f" x="700.390625"/>
      <use xlink:href="#ArialMT-74" x="756.005859"/>
      <use xlink:href="#ArialMT-65" x="783.789062"/>
      <use xlink:href="#ArialMT-6d" x="839.404297"/>
      <use xlink:href="#ArialMT-70" x="922.705078"/>
      <use xlink:href="#ArialMT-65" x="978.320312"/>
      <use xlink:href="#ArialMT-72" x="1033.935547"/>
      <use xlink:href="#ArialMT-61" x="1067.236328"/>
      <use xlink:href="#ArialMT-74" x="1122.851562"/>
      <use xlink:href="#ArialMT-75" x="1150.634766"/>
      <use xlink:href="#ArialMT-72" x="1206.25"/>
      <use xlink:href="#ArialMT-65" x="1239.550781"/>
      <use xlink:href="#ArialMT-5f" x="1295.166016"/>
      <use xlink:href="#ArialMT-61" x="1350.78125"/>
      <use xlink:href="#ArialMT-74" x="1406.396484"/>
      <use xlink:href="#ArialMT-6d" x="1434.179688"/>
      <use xlink:href="#ArialMT-6f" x="1517.480469"/>
      <use xlink:href="#ArialMT-73" x="1573.095703"/>
      <use xlink:href="#ArialMT-70" x="1623.095703"/>
      <use xlink:href="#ArialMT-68" x="1678.710938"/>
      <use xlink:href="#ArialMT-65" x="1734.326172"/>
      <use xlink:href="#ArialMT-72" x="1789.941406"/>
      <use xlink:href="#ArialMT-65" x="1823.242188"/>
     </g>
    </g>
    <g id="patch_136">
     <path d="M 596.845063 253.362344 
L 624.845063 253.362344 
L 624.845063 243.562344 
L 596.845063 243.562344 
z
" style="fill: #4e79a7"/>
    </g>
    <g id="text_28">
     <!-- meat_vegan_animal_animals -->
     <g transform="translate(636.045063 253.362344) scale(0.14 -0.14)">
      <use xlink:href="#ArialMT-6d"/>
      <use xlink:href="#ArialMT-65" x="83.300781"/>
      <use xlink:href="#ArialMT-61" x="138.916016"/>
      <use xlink:href="#ArialMT-74" x="194.53125"/>
      <use xlink:href="#ArialMT-5f" x="222.314453"/>
      <use xlink:href="#ArialMT-76" x="277.929688"/>
      <use xlink:href="#ArialMT-65" x="327.929688"/>
      <use xlink:href="#ArialMT-67" x="383.544922"/>
      <use xlink:href="#ArialMT-61" x="439.160156"/>
      <use xlink:href="#ArialMT-6e" x="494.775391"/>
      <use xlink:href="#ArialMT-5f" x="550.390625"/>
      <use xlink:href="#ArialMT-61" x="606.005859"/>
      <use xlink:href="#ArialMT-6e" x="661.621094"/>
      <use xlink:href="#ArialMT-69" x="717.236328"/>
      <use xlink:href="#ArialMT-6d" x="739.453125"/>
      <use xlink:href="#ArialMT-61" x="822.753906"/>
      <use xlink:href="#ArialMT-6c" x="878.369141"/>
      <use xlink:href="#ArialMT-5f" x="900.585938"/>
      <use xlink:href="#ArialMT-61" x="956.201172"/>
      <use xlink:href="#ArialMT-6e" x="1011.816406"/>
      <use xlink:href="#ArialMT-69" x="1067.431641"/>
      <use xlink:href="#ArialMT-6d" x="1089.648438"/>
      <use xlink:href="#ArialMT-61" x="1172.949219"/>
      <use xlink:href="#ArialMT-6c" x="1228.564453"/>
      <use xlink:href="#ArialMT-73" x="1250.78125"/>
     </g>
    </g>
   </g>
  </g>
 </g>
 <defs>
  <clipPath id="p09cd476a56">
   <rect x="66.979063" y="7.2" width="502.2" height="326.16"/>
  </clipPath>
 </defs>
</svg>
